# xmcd
#
# Track frame offsets:
#	150
#	14274
#	29144
#	43398
#	58054
#	68421
#	85849
#	99499
#	114209
#	129590
#	146609
#	164387
#	181923
#	195690
#
# Disc length: 2819 seconds
#
# Revision: 1
# Processed by: cddbd v1.5.2PL0 Copyright (c) Steve Scherf et al.
# Submitted via: audiograbber 1.83.01
#
DISCID=c00b010e
DTITLE=Various Artist - Mr Music Country 04
DYEAR=2016
DGENRE=Country
TTITLE0=Sam Hunt - Leave The Night On
TTITLE1=Dierks Bentley - Free And Easy (Down The Road I Go)
TTITLE2=Ashton Shepherd - Where Country Grows
TTITLE3=Mark Wills - High Low And In Between
TTITLE4=Joe Nichols - What's A Guy Gotta Do
TTITLE5=Darius Rucker - Come Back Song
TTITLE6=Suzy Bogguss - From Where I Stand
TTITLE7=Marty Stuart - Sweet Love
TTITLE8=Kikki Danielsson - Not About Me Anymore
TTITLE9=Toby Keith - As Good As I Once Was
TTITLE10=Terri Clark - Damn Right
TTITLE11=Gary Allan - Tough Little Boys
TTITLE12=Vince Gill - One More Last Chance
TTITLE13=Josh Turner - Fireeracker
EXTD=
EXTT0=
EXTT1=
EXTT2=
EXTT3=
EXTT4=
EXTT5=
EXTT6=
EXTT7=
EXTT8=
EXTT9=
EXTT10=
EXTT11=
EXTT12=
EXTT13=
PLAYORDER=
